<?xml version="1.0" encoding="UTF-8"?>
<svg width="700pt" height="700pt" version="1.1" viewBox="0 0 700 700" xmlns="http://www.w3.org/2000/svg" xmlns:xlink="http://www.w3.org/1999/xlink">
 <defs>
  <symbol id="w" overflow="visible">
   <path d="m18.453-1.1094c-0.94922 0.5-1.9375 0.875-2.9688 1.125s-2.1094 0.375-3.2344 0.375c-3.3438 0-5.9961-0.92969-7.9531-2.7969-1.9492-1.875-2.9219-4.4102-2.9219-7.6094 0-3.2188 0.97266-5.7578 2.9219-7.625 1.957-1.8633 4.6094-2.7969 7.9531-2.7969 1.125 0 2.2031 0.125 3.2344 0.375s2.0195 0.62109 2.9688 1.1094v4.1562c-0.96094-0.65625-1.9062-1.1328-2.8438-1.4375-0.92969-0.30078-1.9062-0.45312-2.9375-0.45312-1.8438 0-3.2969 0.59375-4.3594 1.7812-1.0625 1.1797-1.5938 2.8086-1.5938 4.8906 0 2.0742 0.53125 3.7031 1.5938 4.8906 1.0625 1.1797 2.5156 1.7656 4.3594 1.7656 1.0312 0 2.0078-0.14844 2.9375-0.45312 0.9375-0.3125 1.8828-0.79688 2.8438-1.4531z"/>
  </symbol>
  <symbol id="b" overflow="visible">
   <path d="m13.5-10.969c-0.41797-0.19531-0.83594-0.34375-1.25-0.4375-0.41797-0.09375-0.83984-0.14062-1.2656-0.14062-1.2305 0-2.1836 0.40234-2.8594 1.2031-0.66797 0.79297-1 1.9297-1 3.4062v6.9375h-4.8125v-15.062h4.8125v2.4688c0.625-0.97656 1.3359-1.6914 2.1406-2.1406 0.80078-0.45703 1.7578-0.6875 2.875-0.6875 0.16406 0 0.34375 0.007813 0.53125 0.015625 0.1875 0.011719 0.45703 0.042969 0.8125 0.09375z"/>
  </symbol>
  <symbol id="a" overflow="visible">
   <path d="m17.344-7.5781v1.375h-11.25c0.11328 1.1367 0.51953 1.9844 1.2188 2.5469 0.69531 0.5625 1.6758 0.84375 2.9375 0.84375 1.0078 0 2.0469-0.14844 3.1094-0.45312 1.0625-0.30078 2.1562-0.75391 3.2812-1.3594v3.7031c-1.1367 0.4375-2.2773 0.76562-3.4219 0.98438-1.1367 0.21875-2.2734 0.32812-3.4062 0.32812-2.7305 0-4.8516-0.69141-6.3594-2.0781-1.5117-1.3828-2.2656-3.3281-2.2656-5.8281 0-2.457 0.73828-4.3906 2.2188-5.7969 1.4883-1.4062 3.5312-2.1094 6.125-2.1094 2.375 0 4.2695 0.71484 5.6875 2.1406 1.4141 1.418 2.125 3.3203 2.125 5.7031zm-4.9375-1.5938c0-0.91406-0.27344-1.6562-0.8125-2.2188-0.53125-0.5625-1.2266-0.84375-2.0781-0.84375-0.9375 0-1.6992 0.26562-2.2812 0.79688-0.58594 0.52344-0.94922 1.2773-1.0938 2.2656z"/>
  </symbol>
  <symbol id="d" overflow="visible">
   <path d="m9.0625-6.7812c-1 0-1.7578 0.17188-2.2656 0.51562-0.5 0.34375-0.75 0.84375-0.75 1.5 0 0.61719 0.20312 1.0938 0.60938 1.4375s0.97266 0.51562 1.7031 0.51562c0.90625 0 1.6641-0.32031 2.2812-0.96875 0.61328-0.65625 0.92188-1.4727 0.92188-2.4531v-0.54688zm7.3594-1.8125v8.5938h-4.8594v-2.2344c-0.64844 0.91797-1.375 1.5859-2.1875 2-0.80469 0.41406-1.7812 0.625-2.9375 0.625-1.5547 0-2.8203-0.45312-3.7969-1.3594-0.96875-0.91406-1.4531-2.0977-1.4531-3.5469 0-1.7695 0.60156-3.0664 1.8125-3.8906 1.2188-0.82031 3.1289-1.2344 5.7344-1.2344h2.8281v-0.375c0-0.75781-0.30469-1.3164-0.90625-1.6719-0.59375-0.36328-1.5273-0.54688-2.7969-0.54688-1.0312 0-1.9961 0.10547-2.8906 0.3125-0.88672 0.21094-1.7109 0.52344-2.4688 0.9375v-3.6719c1.0312-0.25 2.0664-0.4375 3.1094-0.5625 1.0391-0.13281 2.082-0.20312 3.125-0.20312 2.7188 0 4.6758 0.53906 5.875 1.6094 1.207 1.0625 1.8125 2.8047 1.8125 5.2188z"/>
  </symbol>
  <symbol id="c" overflow="visible">
   <path d="m7.5781-19.344v4.2812h4.9531v3.4375h-4.9531v6.3906c0 0.69922 0.13281 1.1719 0.40625 1.4219 0.28125 0.25 0.83203 0.375 1.6562 0.375h2.4844v3.4375h-4.1406c-1.8984 0-3.2461-0.39453-4.0469-1.1875-0.79297-0.78906-1.1875-2.1406-1.1875-4.0469v-6.3906h-2.3906v-3.4375h2.3906v-4.2812z"/>
  </symbol>
  <symbol id="m" overflow="visible">
   <path d="m12.562-12.859v-8.0625h4.8438v20.922h-4.8438v-2.1719c-0.66797 0.88672-1.4023 1.5391-2.2031 1.9531-0.79297 0.40625-1.7148 0.60938-2.7656 0.60938-1.8555 0-3.3828-0.73438-4.5781-2.2031-1.1875-1.4766-1.7812-3.3789-1.7812-5.7031 0-2.3203 0.59375-4.2188 1.7812-5.6875 1.1953-1.4766 2.7227-2.2188 4.5781-2.2188 1.0391 0 1.9609 0.21094 2.7656 0.625 0.80078 0.41797 1.5352 1.0625 2.2031 1.9375zm-3.1719 9.75c1.0312 0 1.8164-0.375 2.3594-1.125 0.53906-0.75 0.8125-1.8438 0.8125-3.2812s-0.27344-2.5312-0.8125-3.2812c-0.54297-0.75781-1.3281-1.1406-2.3594-1.1406-1.0234 0-1.8047 0.38281-2.3438 1.1406-0.54297 0.75-0.8125 1.8438-0.8125 3.2812s0.26953 2.5312 0.8125 3.2812c0.53906 0.75 1.3203 1.125 2.3438 1.125z"/>
  </symbol>
  <symbol id="l" overflow="visible">
   <path d="m10.328-3.1094c1.0312 0 1.8164-0.375 2.3594-1.125 0.53906-0.75 0.8125-1.8438 0.8125-3.2812s-0.27344-2.5312-0.8125-3.2812c-0.54297-0.75781-1.3281-1.1406-2.3594-1.1406s-1.8242 0.38281-2.375 1.1406c-0.55469 0.76172-0.82812 1.8555-0.82812 3.2812 0 1.4297 0.27344 2.5234 0.82812 3.2812 0.55078 0.75 1.3438 1.125 2.375 1.125zm-3.2031-9.75c0.66406-0.875 1.3984-1.5195 2.2031-1.9375 0.8125-0.41406 1.7422-0.625 2.7969-0.625 1.8516 0 3.375 0.74219 4.5625 2.2188 1.1953 1.4688 1.7969 3.3672 1.7969 5.6875 0 2.3242-0.60156 4.2266-1.7969 5.7031-1.1875 1.4688-2.7109 2.2031-4.5625 2.2031-1.0547 0-1.9844-0.21094-2.7969-0.625-0.80469-0.41406-1.5391-1.0625-2.2031-1.9375v2.1719h-4.8125v-20.922h4.8125z"/>
  </symbol>
  <symbol id="k" overflow="visible">
   <path d="m0.34375-15.062h4.8125l4.0469 10.219 3.4375-10.219h4.8125l-6.3281 16.484c-0.63672 1.6758-1.3828 2.8477-2.2344 3.5156-0.84375 0.66406-1.9609 1-3.3438 1h-2.7969v-3.1562h1.5156c0.8125 0 1.4062-0.13281 1.7812-0.39062 0.375-0.26172 0.66016-0.72656 0.85938-1.3906l0.14062-0.42188z"/>
  </symbol>
  <symbol id="j" overflow="visible">
   <path d="m2.5312-20.078h6.5938l4.5625 10.75 4.6094-10.75h6.5781v20.078h-4.9062v-14.688l-4.625 10.828h-3.2812l-4.625-10.828v14.688h-4.9062z"/>
  </symbol>
  <symbol id="i" overflow="visible">
   <path d="m2.1562-5.8594v-9.2031h4.8438v1.5c0 0.82422-0.007812 1.8516-0.015625 3.0781-0.011719 1.2305-0.015625 2.0547-0.015625 2.4688 0 1.2109 0.03125 2.0859 0.09375 2.625 0.0625 0.53125 0.17188 0.91797 0.32812 1.1562 0.19531 0.3125 0.45312 0.55859 0.76562 0.73438 0.32031 0.16797 0.6875 0.25 1.0938 0.25 1.0078 0 1.8008-0.38281 2.375-1.1562 0.57031-0.76953 0.85938-1.8438 0.85938-3.2188v-7.4375h4.8125v15.062h-4.8125v-2.1719c-0.73047 0.875-1.5 1.5234-2.3125 1.9375s-1.7109 0.625-2.6875 0.625c-1.7422 0-3.0625-0.53125-3.9688-1.5938-0.90625-1.0703-1.3594-2.625-1.3594-4.6562z"/>
  </symbol>
  <symbol id="h" overflow="visible">
   <path d="m17.453-9.1719v9.1719h-4.8438v-7.0156c0-1.3008-0.03125-2.1953-0.09375-2.6875-0.054687-0.5-0.14844-0.86328-0.28125-1.0938-0.19922-0.3125-0.46094-0.55469-0.78125-0.73438-0.32422-0.17578-0.6875-0.26562-1.0938-0.26562-1.0117 0-1.8047 0.39062-2.375 1.1719-0.57422 0.77344-0.85938 1.8438-0.85938 3.2188v7.4062h-4.8125v-15.062h4.8125v2.2031c0.72656-0.875 1.5-1.5195 2.3125-1.9375 0.82031-0.41406 1.7227-0.625 2.7031-0.625 1.7383 0 3.0547 0.53125 3.9531 1.5938 0.90625 1.0625 1.3594 2.6172 1.3594 4.6562z"/>
  </symbol>
  <symbol id="v" overflow="visible">
   <path d="m14.719-3.6562h-8.0938l-1.2812 3.6562h-5.2031l7.4375-20.078h6.1719l7.4375 20.078h-5.2031zm-6.8125-3.7344h5.5l-2.7344-7.9844z"/>
  </symbol>
  <symbol id="u" overflow="visible">
   <path d="m2.8125-5.2031h4.8438v5.2031h-4.8438z"/>
  </symbol>
  <symbol id="t" overflow="visible">
   <path d="m16.5-19.453v4.25c-1.1055-0.48828-2.1836-0.85938-3.2344-1.1094-1.043-0.25-2.0312-0.375-2.9688-0.375-1.2305 0-2.1406 0.17188-2.7344 0.51562-0.59375 0.33594-0.89062 0.85938-0.89062 1.5781 0 0.54297 0.19531 0.96484 0.59375 1.2656 0.40625 0.29297 1.1289 0.54688 2.1719 0.76562l2.2031 0.4375c2.2383 0.44922 3.8281 1.1328 4.7656 2.0469 0.94531 0.91797 1.4219 2.2188 1.4219 3.9062 0 2.2188-0.66406 3.8711-1.9844 4.9531-1.3125 1.0742-3.3203 1.6094-6.0156 1.6094-1.2734 0-2.5469-0.125-3.8281-0.375-1.2812-0.23828-2.5625-0.59375-3.8438-1.0625v-4.375c1.2812 0.6875 2.5195 1.2031 3.7188 1.5469 1.1953 0.34375 2.3477 0.51562 3.4531 0.51562 1.1328 0 2-0.1875 2.5938-0.5625 0.60156-0.38281 0.90625-0.92578 0.90625-1.625 0-0.625-0.20312-1.1016-0.60938-1.4375-0.40625-0.34375-1.2188-0.64844-2.4375-0.92188l-2-0.45312c-2.0117-0.42578-3.4805-1.1094-4.4062-2.0469-0.92969-0.94531-1.3906-2.2188-1.3906-3.8125 0-2 0.64062-3.5352 1.9219-4.6094 1.2891-1.0703 3.1484-1.6094 5.5781-1.6094 1.1016 0 2.2383 0.085938 3.4062 0.25 1.1641 0.15625 2.3672 0.40234 3.6094 0.73438z"/>
  </symbol>
  <symbol id="g" overflow="visible">
   <path d="m12.234-20.922v3.1562h-2.6719c-0.67969 0-1.1523 0.125-1.4219 0.375-0.27344 0.24219-0.40625 0.66797-0.40625 1.2812v1.0469h4.1094v3.4375h-4.1094v11.625h-4.8125v-11.625h-2.3906v-3.4375h2.3906v-1.0469c0-1.6445 0.45312-2.8594 1.3594-3.6406 0.91406-0.78125 2.3359-1.1719 4.2656-1.1719z"/>
  </symbol>
  <symbol id="s" overflow="visible">
   <path d="m2.3125-15.062h4.8125v15.062h-4.8125zm0-5.8594h4.8125v3.9219h-4.8125z"/>
  </symbol>
  <symbol id="f" overflow="visible">
   <path d="m17.453-9.1719v9.1719h-4.8438v-7c0-1.3125-0.03125-2.2109-0.09375-2.7031-0.054687-0.5-0.14844-0.86328-0.28125-1.0938-0.19922-0.3125-0.46094-0.55469-0.78125-0.73438-0.32422-0.17578-0.6875-0.26562-1.0938-0.26562-1.0117 0-1.8047 0.39062-2.375 1.1719-0.57422 0.77344-0.85938 1.8438-0.85938 3.2188v7.4062h-4.8125v-20.922h4.8125v8.0625c0.72656-0.875 1.5-1.5195 2.3125-1.9375 0.82031-0.41406 1.7227-0.625 2.7031-0.625 1.7383 0 3.0547 0.53125 3.9531 1.5938 0.90625 1.0625 1.3594 2.6172 1.3594 4.6562z"/>
  </symbol>
  <symbol id="e" overflow="visible">
   <path d="m9.4844-11.984c-1.0742 0-1.8906 0.38672-2.4531 1.1562-0.55469 0.76172-0.82812 1.8672-0.82812 3.3125 0 1.4375 0.27344 2.543 0.82812 3.3125 0.5625 0.77344 1.3789 1.1562 2.4531 1.1562 1.0508 0 1.8516-0.38281 2.4062-1.1562 0.55078-0.76953 0.82812-1.875 0.82812-3.3125 0-1.4453-0.27734-2.5508-0.82812-3.3125-0.55469-0.76953-1.3555-1.1562-2.4062-1.1562zm0-3.4375c2.5938 0 4.6133 0.69922 6.0625 2.0938 1.457 1.3984 2.1875 3.3359 2.1875 5.8125 0 2.4688-0.73047 4.4062-2.1875 5.8125-1.4492 1.3984-3.4688 2.0938-6.0625 2.0938-2.6055 0-4.6406-0.69531-6.1094-2.0938-1.4609-1.4062-2.1875-3.3438-2.1875-5.8125 0-2.4766 0.72656-4.4141 2.1875-5.8125 1.4688-1.3945 3.5039-2.0938 6.1094-2.0938z"/>
  </symbol>
  <symbol id="r" overflow="visible">
   <path d="m16.281-12.562c0.60156-0.9375 1.3203-1.6445 2.1562-2.125 0.84375-0.48828 1.7695-0.73438 2.7812-0.73438 1.7266 0 3.0469 0.53125 3.9531 1.5938s1.3594 2.6172 1.3594 4.6562v9.1719h-4.8438v-7.8594c0.007812-0.11328 0.015625-0.23438 0.015625-0.35938v-0.53125c0-1.0703-0.15625-1.8477-0.46875-2.3281-0.3125-0.47656-0.82031-0.71875-1.5156-0.71875-0.91797 0-1.625 0.38281-2.125 1.1406-0.49219 0.75-0.74609 1.8398-0.76562 3.2656v7.3906h-4.8438v-7.8594c0-1.6641-0.14844-2.7383-0.4375-3.2188-0.28125-0.47656-0.79297-0.71875-1.5312-0.71875-0.91797 0-1.6328 0.38281-2.1406 1.1406-0.5 0.76172-0.75 1.8438-0.75 3.25v7.4062h-4.8438v-15.062h4.8438v2.2031c0.59375-0.85156 1.2695-1.4922 2.0312-1.9219 0.76953-0.42578 1.6172-0.64062 2.5469-0.64062 1.0391 0 1.957 0.25 2.75 0.75 0.80078 0.5 1.4102 1.2031 1.8281 2.1094z"/>
  </symbol>
  <symbol id="q" overflow="visible">
   <path d="m2.5312-20.078h5.7812l7.2969 13.766v-13.766h4.9219v20.078h-5.7969l-7.2969-13.781v13.781h-4.9062z"/>
  </symbol>
  <symbol id="p" overflow="visible">
   <path d="m2.5312-20.078h8.5938c2.5508 0 4.5078 0.57031 5.875 1.7031 1.375 1.1367 2.0625 2.75 2.0625 4.8438 0 2.1055-0.6875 3.7266-2.0625 4.8594-1.3672 1.1367-3.3242 1.7031-5.875 1.7031h-3.4219v6.9688h-5.1719zm5.1719 3.75v5.6094h2.875c1 0 1.7695-0.24219 2.3125-0.73438 0.55078-0.48828 0.82812-1.1797 0.82812-2.0781 0-0.89453-0.27734-1.582-0.82812-2.0625-0.54297-0.48828-1.3125-0.73438-2.3125-0.73438z"/>
  </symbol>
  <symbol id="o" overflow="visible">
   <path d="m2.3125-15.062h4.8125v14.797c0 2.0078-0.48438 3.5469-1.4531 4.6094s-2.3711 1.5938-4.2031 1.5938h-2.3906v-3.1562h0.84375c0.91406 0 1.5391-0.21094 1.875-0.625 0.34375-0.40625 0.51562-1.2148 0.51562-2.4219zm0-5.8594h4.8125v3.9219h-4.8125z"/>
  </symbol>
  <symbol id="n" overflow="visible">
   <path d="m14.484-14.594v3.9219c-0.65625-0.44531-1.3125-0.77344-1.9688-0.98438-0.65625-0.21875-1.3398-0.32812-2.0469-0.32812-1.3438 0-2.3906 0.39844-3.1406 1.1875-0.75 0.78125-1.125 1.875-1.125 3.2812s0.375 2.5078 1.125 3.2969c0.75 0.78125 1.7969 1.1719 3.1406 1.1719 0.75 0 1.4609-0.10938 2.1406-0.32812 0.67578-0.22656 1.3008-0.56641 1.875-1.0156v3.9531c-0.75 0.27344-1.5156 0.47266-2.2969 0.60938-0.77344 0.14453-1.5469 0.21875-2.3281 0.21875-2.7188 0-4.8438-0.69531-6.375-2.0938-1.5312-1.3945-2.2969-3.332-2.2969-5.8125 0-2.4883 0.76562-4.4258 2.2969-5.8125 1.5312-1.3945 3.6562-2.0938 6.375-2.0938 0.78906 0 1.5664 0.070313 2.3281 0.20312 0.76953 0.13672 1.5352 0.34375 2.2969 0.625z"/>
  </symbol>
 </defs>
 <path transform="matrix(15.979 0 0 15.979 350 281.32)" d="m17.021-0.082627c0 4.5143-1.7933 8.8436-4.9854 12.036-3.1921 3.1921-7.5214 4.9854-12.036 4.9854-4.5143 0-8.8436-1.7933-12.036-4.9854-3.1921-3.1921-4.9854-7.5214-4.9854-12.036 0-4.5143 1.7933-8.8436 4.9854-12.036 3.1921-3.1921 7.5214-4.9854 12.036-4.9854 4.5143 0 8.8436 1.7933 12.036 4.9854 3.1921 3.1921 4.9854 7.5214 4.9854 12.036z" fill="none" stroke="#000" stroke-width="2.5838"/>
 <path d="m305.43 195.27-0.054687-39.879-133.27 105.06c0.19141 12.402-0.19141 26.699 0 39.102l133.27 105.06-0.10547-40.242-109.39-84.195zm89.152 0 0.054687-39.879 133.27 105.06c-0.19141 12.402 0.19141 26.699 0 39.102l-133.27 105.06 0.10547-40.242 109.39-84.191z"/>
</svg>
